<svg width="24" height="24" viewBox="0 0 24 24" fill="none" xmlns="http://www.w3.org/2000/svg">
<path d="M5.17459 18.3741C7.55059 18.5454 9.61913 19.5174 10.8383 20.2238C11.5592 20.6412 12.4408 20.6412 13.1617 20.2238C14.3809 19.5174 16.4494 18.5454 18.8254 18.3741C20.0406 18.2866 21 17.3136 21 16.0954V5.75371C21 4.38182 19.7994 3.33004 18.4362 3.4789C16.2246 3.72117 14.3137 4.62507 13.1617 5.2935C12.4408 5.7109 11.5592 5.7109 10.8383 5.2935C9.68627 4.62507 7.77535 3.72117 5.56378 3.4789C4.19968 3.33004 3 4.38182 3 5.75371V16.0954C3 17.3136 3.95935 18.2866 5.17459 18.3741Z" stroke="black" stroke-width="1.5" stroke-linecap="round" stroke-linejoin="round"/>
<path d="M12 15.9297L12 20.4804" stroke="black" stroke-width="1.5" stroke-linecap="round" stroke-linejoin="round"/>
<path d="M9.56783 13.3402L9.46681 13.0668C9.08595 12.036 8.27443 11.2233 7.2451 10.8419L6.97217 10.7407L7.2451 10.6396C8.27443 10.2581 9.08595 9.44542 9.46681 8.41463L9.56783 8.14122L9.66885 8.41463C10.0497 9.44542 10.8612 10.2581 11.8906 10.6396L12.1636 10.7407L11.8906 10.8419C10.8612 11.2233 10.0497 12.036 9.66885 13.0668L9.56783 13.3402Z" stroke="black" stroke-width="1.5" stroke-linecap="round" stroke-linejoin="round"/>
<path d="M14.8785 14.5823C14.7069 14.0176 14.2657 13.5757 13.7019 13.4038C14.2657 13.232 14.7069 12.79 14.8785 12.2254C15.0502 12.79 15.4914 13.232 16.0552 13.4038C15.4914 13.5757 15.0502 14.0176 14.8785 14.5823Z" stroke="black" stroke-width="1.5" stroke-linecap="round" stroke-linejoin="round"/>
</svg>
