<svg width="24" height="24" viewBox="0 0 24 24" fill="none" xmlns="http://www.w3.org/2000/svg">
<circle cx="10.4654" cy="8.14212" r="4.70071" stroke="black" stroke-width="1.5" stroke-linecap="round" stroke-linejoin="round"/>
<path d="M4.05002 19.468C3.93917 18.8298 3.98496 18.1684 3.98496 17.5238C3.98496 15.0944 5.95436 13.125 8.38374 13.125H12.6671C12.9936 13.125 13.3117 13.1606 13.6179 13.228" stroke="black" stroke-width="1.5" stroke-linecap="round" stroke-linejoin="round"/>
<path fill-rule="evenodd" clip-rule="evenodd" d="M18.7233 20.5532H16.1026C15.3837 20.5532 14.8018 19.9712 14.8018 19.2523V17.7813C14.8018 17.0634 15.3837 16.4805 16.1026 16.4805H18.7233C19.4412 16.4805 20.0241 17.0634 20.0241 17.7813V19.2523C20.0241 19.9712 19.4412 20.5532 18.7233 20.5532Z" stroke="black" stroke-width="1.5" stroke-linecap="round" stroke-linejoin="round"/>
<path d="M18.9771 16.5055V15.5375C18.9666 14.6731 18.2573 13.9818 17.3929 13.9923C16.5475 14.0028 15.8629 14.6846 15.8486 15.5309V16.5055" stroke="black" stroke-width="1.5" stroke-linecap="round" stroke-linejoin="round"/>
</svg>
