<svg width="24" height="24" viewBox="0 0 24 24" fill="none" xmlns="http://www.w3.org/2000/svg">
<path d="M19.4177 6.84714L20.1717 8.15286C20.7497 9.15405 20.4053 10.4335 19.405 11.0115C18.6452 11.4512 18.6452 12.5488 19.405 12.9876C20.4062 13.5655 20.7497 14.8459 20.1717 15.8462L19.4177 17.1529C18.8398 18.1541 17.5593 18.4965 16.5581 17.9186C15.7982 17.4798 14.8476 18.0285 14.8476 18.9062C14.8476 20.0621 13.9107 21 12.7548 21H11.2467C10.0908 21 9.1538 20.0621 9.1538 18.9062C9.1538 18.0285 8.20321 17.4798 7.44234 17.9186C6.44116 18.4965 5.1617 18.1541 4.58375 17.1529L3.8297 15.8462C3.25175 14.8459 3.59424 13.5655 4.59543 12.9876C5.35629 12.5488 5.35629 11.4512 4.59543 11.0115C3.59424 10.4335 3.25175 9.15405 3.8297 8.15286L4.58375 6.84714C5.1617 5.84595 6.44116 5.50249 7.44234 6.08043C8.20321 6.52022 9.1538 5.97146 9.1538 5.09286C9.1538 3.93697 10.0908 3 11.2467 3H12.7548C13.9107 3 14.8476 3.93697 14.8476 5.09286C14.8476 5.97146 15.7992 6.52022 16.5591 6.08043C17.5593 5.50249 18.8398 5.84595 19.4177 6.84714Z" stroke="black" stroke-width="1.5" stroke-linecap="round" stroke-linejoin="round"/>
<path d="M15.2126 11.9999C15.2126 10.2252 13.7746 8.78711 11.9999 8.78711C10.2252 8.78711 8.78711 10.2252 8.78711 11.9999C8.78711 13.7746 10.2252 15.2126 11.9999 15.2126C13.7746 15.2126 15.2126 13.7746 15.2126 11.9999Z" stroke="black" stroke-width="1.5" stroke-linecap="round" stroke-linejoin="round"/>
</svg>
