<svg width="318" height="22" viewBox="0 0 318 22" fill="none" xmlns="http://www.w3.org/2000/svg">
<rect y="3" width="3" height="16" rx="1.5" fill="#2563EB"/>
<rect x="5" width="3" height="22" rx="1.5" fill="#2563EB"/>
<rect x="10" y="3" width="3" height="16" rx="1.5" fill="#2563EB"/>
<rect x="15" y="2" width="3" height="18" rx="1.5" fill="#2563EB"/>
<rect x="20" y="6" width="3" height="10" rx="1.5" fill="#2563EB"/>
<rect x="25" y="4" width="3" height="14" rx="1.5" fill="#2563EB"/>
<rect x="30" y="2" width="3" height="18" rx="1.5" fill="#2563EB"/>
<rect x="35" y="6" width="3" height="10" rx="1.5" fill="#2563EB"/>
<rect x="40" y="3" width="3" height="16" rx="1.5" fill="#2563EB"/>
<rect x="45" width="3" height="22" rx="1.5" fill="#2563EB"/>
<rect x="50" y="3" width="3" height="16" rx="1.5" fill="#2563EB"/>
<rect x="55" y="2" width="3" height="18" rx="1.5" fill="#2563EB"/>
<rect x="60" y="6" width="3" height="10" rx="1.5" fill="#2563EB"/>
<rect x="65" y="4" width="3" height="14" rx="1.5" fill="#2563EB"/>
<rect x="70" y="2" width="3" height="18" rx="1.5" fill="#2563EB"/>
<rect x="75" y="6" width="3" height="10" rx="1.5" fill="#2563EB"/>
<rect x="80" y="3" width="3" height="16" rx="1.5" fill="#2563EB"/>
<rect x="85" width="3" height="22" rx="1.5" fill="#2563EB"/>
<rect x="90" y="3" width="3" height="16" rx="1.5" fill="#2563EB"/>
<rect x="95" y="2" width="3" height="18" rx="1.5" fill="#2563EB"/>
<rect x="100" y="6" width="3" height="10" rx="1.5" fill="#2563EB"/>
<rect x="105" y="4" width="3" height="14" rx="1.5" fill="#2563EB"/>
<rect x="110" y="2" width="3" height="18" rx="1.5" fill="#2563EB"/>
<rect x="115" y="6" width="3" height="10" rx="1.5" fill="#2563EB"/>
<rect x="120" y="3" width="3" height="16" rx="1.5" fill="#2563EB"/>
<rect x="125" width="3" height="22" rx="1.5" fill="#2563EB"/>
<rect x="130" y="3" width="3" height="16" rx="1.5" fill="#2563EB"/>
<rect x="135" y="2" width="3" height="18" rx="1.5" fill="#2563EB"/>
<rect x="140" y="6" width="3" height="10" rx="1.5" fill="#2563EB"/>
<rect x="145" y="4" width="3" height="14" rx="1.5" fill="#2563EB"/>
<rect x="150" y="2" width="3" height="18" rx="1.5" fill="#2563EB"/>
<rect x="155" y="6" width="3" height="10" rx="1.5" fill="#2563EB"/>
<rect x="160" y="3" width="3" height="16" rx="1.5" fill="#2563EB"/>
<rect x="165" width="3" height="22" rx="1.5" fill="#2563EB"/>
<rect x="170" y="3" width="3" height="16" rx="1.5" fill="#2563EB"/>
<rect x="175" y="2" width="3" height="18" rx="1.5" fill="#2563EB"/>
<rect x="180" y="6" width="3" height="10" rx="1.5" fill="#2563EB"/>
<rect x="185" y="4" width="3" height="14" rx="1.5" fill="#2563EB"/>
<rect x="190" y="2" width="3" height="18" rx="1.5" fill="#2563EB"/>
<rect x="195" y="6" width="3" height="10" rx="1.5" fill="#2563EB"/>
<rect x="200" y="3" width="3" height="16" rx="1.5" fill="#2563EB"/>
<rect x="205" width="3" height="22" rx="1.5" fill="#2563EB"/>
<rect x="210" y="3" width="3" height="16" rx="1.5" fill="#2563EB"/>
<rect x="215" y="2" width="3" height="18" rx="1.5" fill="#2563EB"/>
<rect x="220" y="6" width="3" height="10" rx="1.5" fill="#2563EB"/>
<rect x="225" y="4" width="3" height="14" rx="1.5" fill="#2563EB"/>
<rect x="230" y="2" width="3" height="18" rx="1.5" fill="#2563EB"/>
<rect x="235" y="6" width="3" height="10" rx="1.5" fill="#2563EB"/>
<rect x="240" y="3" width="3" height="16" rx="1.5" fill="#2563EB"/>
<rect x="245" width="3" height="22" rx="1.5" fill="#2563EB"/>
<rect x="250" y="3" width="3" height="16" rx="1.5" fill="#2563EB"/>
<rect x="255" y="2" width="3" height="18" rx="1.5" fill="#2563EB"/>
<rect x="260" y="6" width="3" height="10" rx="1.5" fill="#2563EB"/>
<rect x="265" y="4" width="3" height="14" rx="1.5" fill="#2563EB"/>
<rect x="270" y="2" width="3" height="18" rx="1.5" fill="#2563EB"/>
<rect x="275" y="6" width="3" height="10" rx="1.5" fill="#2563EB"/>
<rect x="280" y="3" width="3" height="16" rx="1.5" fill="#2563EB"/>
<rect x="285" width="3" height="22" rx="1.5" fill="#2563EB"/>
<rect x="290" y="3" width="3" height="16" rx="1.5" fill="#2563EB"/>
<rect x="295" y="2" width="3" height="18" rx="1.5" fill="#2563EB"/>
<rect x="300" y="6" width="3" height="10" rx="1.5" fill="#2563EB"/>
<rect x="305" y="4" width="3" height="14" rx="1.5" fill="#2563EB"/>
<rect x="310" y="2" width="3" height="18" rx="1.5" fill="#2563EB"/>
<rect x="315" y="6" width="3" height="10" rx="1.5" fill="#2563EB"/>
</svg>
